<svg xmlns="http://www.w3.org/2000/svg" viewBox="0 0 200 200" width="200" height="200">
  <!-- Background circle -->
  <circle cx="100" cy="100" r="95" fill="#6366f1" opacity="0.2"/>

  <!-- Neck -->
  <path d="M85 145 L85 170 L115 170 L115 145" fill="#fde7d9"/>

  <!-- Shirt/top -->
  <path d="M60 170 Q100 155 140 170 L140 200 L60 200 Z" fill="#8b5cf6"/>

  <!-- Face -->
  <ellipse cx="100" cy="105" rx="45" ry="50" fill="#fde7d9"/>

  <!-- Hair - back layer -->
  <path d="M55 90 Q50 130 60 150 Q55 110 65 85 Q75 55 100 50 Q125 55 135 85 Q145 110 140 150 Q150 130 145 90 Q140 50 100 40 Q60 50 55 90" fill="#5c4033"/>

  <!-- Hair - bangs/fringe -->
  <path d="M60 75 Q65 65 80 62 Q90 60 100 62 Q110 60 120 62 Q135 65 140 75 Q135 70 120 68 Q100 65 80 68 Q65 70 60 75" fill="#5c4033"/>

  <!-- Hair - side left -->
  <path d="M55 90 Q50 110 55 135 Q52 115 55 95 Q58 80 65 75 Q55 85 55 90" fill="#5c4033"/>

  <!-- Hair - side right -->
  <path d="M145 90 Q150 110 145 135 Q148 115 145 95 Q142 80 135 75 Q145 85 145 90" fill="#5c4033"/>

  <!-- Glasses frame -->
  <ellipse cx="78" cy="100" rx="18" ry="15" fill="none" stroke="#4a5568" stroke-width="3"/>
  <ellipse cx="122" cy="100" rx="18" ry="15" fill="none" stroke="#4a5568" stroke-width="3"/>
  <path d="M96 100 L104 100" stroke="#4a5568" stroke-width="3"/>
  <path d="M60 97 L50 93" stroke="#4a5568" stroke-width="3"/>
  <path d="M140 97 L150 93" stroke="#4a5568" stroke-width="3"/>

  <!-- Eyes -->
  <ellipse cx="78" cy="100" rx="6" ry="7" fill="#4a5568"/>
  <ellipse cx="122" cy="100" rx="6" ry="7" fill="#4a5568"/>
  <circle cx="80" cy="98" r="2" fill="white"/>
  <circle cx="124" cy="98" r="2" fill="white"/>

  <!-- Eyebrows -->
  <path d="M65 82 Q78 78 90 82" stroke="#5c4033" stroke-width="2.5" fill="none"/>
  <path d="M110 82 Q122 78 135 82" stroke="#5c4033" stroke-width="2.5" fill="none"/>

  <!-- Nose -->
  <path d="M100 105 Q102 115 100 120 Q97 118 98 120" stroke="#e5cec0" stroke-width="2" fill="none"/>

  <!-- Smile -->
  <path d="M85 130 Q100 142 115 130" stroke="#c9847a" stroke-width="2.5" fill="none" stroke-linecap="round"/>

  <!-- Blush -->
  <ellipse cx="68" cy="120" rx="8" ry="5" fill="#ffb6c1" opacity="0.4"/>
  <ellipse cx="132" cy="120" rx="8" ry="5" fill="#ffb6c1" opacity="0.4"/>
</svg>